<?xml version="1.0" encoding="utf-8"?>
<svg xmlns="http://www.w3.org/2000/svg" id="Layer_1" style="enable-background:new 0 0 128.3 120.7;" version="1.1" viewBox="0 0 128.3 120.7" x="0px" y="0px">
<style type="text/css">
	.st0{fill:#FFFFFF;}
	.st1{fill:#F16C00;}
</style>
<g>
	<g>
		<path class="st0" d="M4,119c-0.3,0-0.5-0.2-0.2-0.4c0.4-0.3,4.4-2.2,4.4-2.1c0.9,1,1.2,2.3,1.2,2.3S4.1,119,4,119z M48.4,116.5&#xA;			c0-0.1,4,1.8,4.4,2.1c0.2,0.2,0,0.4-0.2,0.4l-5.3-0.2C47.3,118.8,47.5,117.6,48.4,116.5z M16,12.1c-0.6,1-1.3,2.2-1.9,3.5&#xA;			c0-0.6-0.1-1.1-0.2-1.5C14.5,13.4,15.2,12.7,16,12.1z M11.8,16.3c0.3,0.7,0.8,1.3,1.2,1.7c-0.3,0.9-0.6,1.8-0.9,2.7&#xA;			c-0.7-1.9-1.2-2.5-1.6-2.6C10.9,17.5,11.4,16.9,11.8,16.3z M9.4,20c0,1.4,1.2,2.4,2.2,3c-0.3,1.1-0.6,2.2-0.9,3.1&#xA;			c-0.4-2.2-1-2.8-1.4-2.8c-0.4-0.1-0.7,0.2-1,0.7c-1,1.9,0.4,3.6,1.6,4.4c-0.4,1.1-0.8,2.1-1.2,2.9c-0.3-2.4-0.9-3.1-1.3-3.2&#xA;			c-0.3-0.1-0.6,0.1-0.9,0.5C6.9,26,7.7,23,9.4,20z M6.6,34.7c-0.1-1-0.1-2-0.2-3c0.3,0.7,0.9,1.3,1.4,1.7c-0.4,0.7-0.8,1.3-1.2,1.8&#xA;			C6.6,35,6.6,34.9,6.6,34.7z M12.9,65.3L28,63.8c-9.7,6.9-15.1,5.3-15.1,5.3L12.7,69C12.7,68.1,12.8,66.7,12.9,65.3z M12.4,118.7&#xA;			c-0.1-0.8-0.5-2.4-1.3-3.2c0,0,1.5-0.8,2.2-1c1.2,1,1.9,3.2,2,4L12.4,118.7z M18.2,118.4c0-1.2-0.7-3.5-2.1-5l2.5-1&#xA;			c2.3,2.2,2.5,5.9,2.5,5.9S19,118.4,18.2,118.4z M27.1,118.2c-0.7,0.1-2.5,0.1-3,0.1c-0.8-4.6-2.8-6.9-2.8-6.9&#xA;			c0-0.1,2.8-0.6,2.8-0.6s2.3,0.6,3,0.6V118.2z M27.1,108.8c-0.2,0.6-3.1-0.4-3.1-1.1c0-0.5-1-10.1-1.1-10.6l4.1-0.3&#xA;			C27.2,100.3,27.2,105.4,27.1,108.8z M43.3,114.5c0.7,0.2,2.2,1,2.2,1c-0.8,0.8-1.1,2.5-1.3,3.2l-2.9-0.2&#xA;			C41.3,117.7,42.1,115.5,43.3,114.5z M38,112.4l2.5,1c-1.4,1.6-2,3.8-2.1,5c-0.8,0-2.9-0.1-2.9-0.1S35.7,114.6,38,112.4z&#xA;			 M35.2,111.4c0,0-2,2.3-2.8,6.9c-0.5,0-2.3,0-3-0.1l0.1-6.9c0.6,0,3-0.6,3-0.6S35.3,111.2,35.2,111.4z M29.5,96.7&#xA;			c1-0.1,3.1-0.2,4.1-0.3c0,0-1.1,10.8-1.1,11.3c0,0.7-2.9,1.7-3.1,1.1C29.4,105.4,29.4,100.2,29.5,96.7z M24.3,13.7&#xA;			c-0.1-0.3,0.1-0.7,0.4-0.8s0.6,0,0.7,0.3c0.2,0.3,0.5,0.6,0.7,0.8c0.3,0.2,0.6,0.5,0.9,0.6c0.6,0.3,1.4,0.4,2,0.2s1.1-0.6,1.4-1.2&#xA;			c0.3-0.6,0.4-1.4,0.4-2.2c0-0.4,0.3-0.7,0.7-0.7c0.3,0,0.6,0.2,0.7,0.5l0.1,0.1c0.3,0.9,0.4,2,0,3.1c-0.2,0.5-0.5,1.1-1,1.5&#xA;			s-1,0.8-1.6,0.9C29,17,28.4,17,27.8,16.9s-1.1-0.3-1.6-0.6c-0.9-0.6-1.6-1.5-1.9-2.4V13.7z M33.7,11c-0.1-0.3,0.1-0.7,0.4-0.8&#xA;			c0.3-0.1,0.5,0,0.7,0.2c0.2,0.3,0.5,0.6,0.8,0.8s0.6,0.5,0.9,0.6c0.7,0.3,1.4,0.5,2,0.3c0.3-0.1,0.6-0.2,0.8-0.4s0.4-0.4,0.6-0.7&#xA;			c0.3-0.6,0.4-1.4,0.4-2.2c0-0.4,0.3-0.7,0.7-0.7c0.3,0,0.5,0.2,0.6,0.4l0.1,0.2c0.2,0.5,0.3,1,0.3,1.5c0,0.3,0,0.5-0.1,0.8&#xA;			c0,0.1-0.1,0.3-0.1,0.4c0,0.1-0.1,0.3-0.1,0.4c-0.2,0.6-0.6,1.1-1.1,1.5s-1.1,0.7-1.8,0.8c-1.3,0.2-2.5-0.1-3.4-0.7&#xA;			c-0.9-0.6-1.6-1.5-1.9-2.5L33.7,11z M40.8,47.5c0-0.8,0.6-1.4,1.4-1.4H44v-6.2c-4-0.4-11.9-2.1-18.3-12.4c-0.2,0.5-0.3,1-0.5,1.6&#xA;			c-0.1,0.5-0.3,1-0.4,1.5s-0.2,1-0.3,1.5v0.1c-0.1,0.4-0.5,0.7-0.9,0.6c-0.3-0.1-0.5-0.3-0.6-0.5c-0.1-0.6-0.2-1.2-0.2-1.7&#xA;			c0-0.6,0-1.1,0.1-1.7c0.1-1.1,0.4-2.3,0.9-3.4s1.2-2.1,2-3c0.2-0.2,0.5-0.4,0.7-0.6s0.5-0.4,0.7-0.5c0.5-0.3,1.1-0.6,1.6-0.7&#xA;			c0.4-0.1,0.8,0.1,0.9,0.5c0.1,0.3,0,0.6-0.2,0.8l0,0c-0.7,0.7-1.4,1.3-1.9,2.1c3.4,0.7,10.3,1.7,13.8,1.3l-1.5-3.5&#xA;			C39,20,40.4,19.7,42,19.2c2.3-0.6,4.9-1.7,7.5-3v-7c0-0.8,0.6-1.4,1.4-1.4h10c0.7-0.9,1-1.7,1-2.5c0-1.3-2.9-2.9-12.1-2.9&#xA;			C38,2.4,29.2,4.5,22.7,7.8c-0.4,0.3-1,0.8-1.7,1.5c2-1.2,2.4-0.9,2.6-0.8c0.3,0.2,0.3,0.6,0.1,1.1c-0.4,1.2-1.5,2-3.1,2.2&#xA;			c-0.4,0.1-0.9,0.1-1.2,0.1c-0.3,0-0.6,0-0.8,0c-0.7,1-1.5,2.2-2.2,3.6c2.8-2.6,3.4-2.2,3.6-2.1c0.3,0.2,0.4,0.6,0.3,1.1&#xA;			c-0.3,1.3-1.2,2.2-2.8,2.6c-0.9,0.3-1.8,0.3-2,0.3c-0.4,0.9-0.8,1.9-1.1,3c2.2-2.5,2.8-2.2,3-2.1c0.3,0.1,0.5,0.5,0.4,1.1&#xA;			c-0.1,1.3-1,2.3-2.4,2.9c-0.6,0.3-1.3,0.4-1.7,0.5c0,0.1-0.1,0.2-0.1,0.4c-0.3,1.1-0.5,2.1-0.8,3.1c1.8-2.3,2.4-2.1,2.6-2&#xA;			c0.3,0.1,0.5,0.5,0.5,1c0,1.3-0.8,2.4-2.2,3.1C13,28.8,12.3,29,12,29.1c-0.3,0.8-0.6,1.6-0.9,2.3c1.9-2.1,2.5-1.9,2.7-1.8&#xA;			c0.3,0.1,0.5,0.5,0.4,1.1c-0.1,1.3-1,2.3-2.4,2.9c-0.9,0.4-1.7,0.5-2,0.6c-0.4,0.8-0.9,1.5-1.3,2.1c2.3-1.3,2.7-1,2.9-0.8&#xA;			c0.3,0.2,0.3,0.6,0.1,1.2c-0.5,1.2-1.6,1.9-3.2,2.1c-0.3,0-0.6,0-0.8,0c-0.1,0-0.2,0-0.2,0c0.1,0.7,0.3,1.5,0.5,2.2&#xA;			c0.7,2.7,2.6,7.5,6.5,12.4c-0.5,3.2-0.9,6.4-1.1,9.7v0.1l26-2.6c4-0.5,8-1,12-1.5c0,0,25.7-2.3,26.6-2.3c2.5,3.5,7.9,8.9,8.9,8&#xA;			s-4.4-5.6-3.9-6.1c0.6-0.7,7.7,4.9,8.6,3.2c0.8-1.3-7.3-5.2-6.9-6c0.5-1,10.8,2.5,11.1,0.7c0.4-2.1-11.2-3.2-11.2-4.3&#xA;			c0-0.7,8-0.8,7.4-2.8c-0.4-1.4-8.6,0.6-9.5-0.2c-1-1,2.6-4.4,0.7-5.5c-1-0.6-3.3,3.3-5.6,8.2C74.7,52.5,54,53.7,54,53.7l-26.3,1.9&#xA;			c-0.5,0-1.1-0.7-1.2-1.2c0-0.5,0.7-1.2,1.2-1.2l13.4-1v-4.7H40.8z"/>
		<path class="st1" d="M51.6,61.3c-0.2,0-0.3,0-0.3,0h-0.1c-0.9,3.1-2.4,5.9-4.3,8.4c-0.9,0.9-1.4,1.1-1.7,0.1&#xA;			c-0.2-0.7,0.2-1.5,0.5-2.2c1.1-2.1,2.2-4,2.9-6c-1.7,0.2-3.4,0.4-5.2,0.6c-1.9,3.2-4.2,6.6-6.8,10.4c-0.9,1.2-1.7,2.2-2.7,3.3&#xA;			c-0.3,0.3-0.6,0.7-0.9,1c-0.2,0.3-0.5,0.5-0.8,0.7c-0.2,0.1-0.5,0.2-0.7,0.1c-0.3-0.1-0.3-0.6-0.2-0.9c0.1-0.6,0.4-1.1,0.7-1.6&#xA;			c2.2-3.2,5.5-7.8,8.6-12.8c-0.5,0.1-1,0.1-1.5,0.2l-6.5,0.6c-2.9,2.8-6,4.8-8.6,6.1c-4.5,2.1-7.3,2.8-11.2,2.4l-0.2,23.2L57,92&#xA;			L51.6,61.3z M49.3,20.1h73.3V27H49.3V20.1z M125,36.5H51.7v-6.9H125V36.5z M125.5,17.3H52.3v-6.9h73.3v6.9H125.5z M18.3,89&#xA;			L18,83.9l4.6-0.3l0.1,1.6l-3,0.2l0.1,1.9l3-0.2l0.1,1.6L18.3,89z M38.7,87.7l-0.3-5.1l4.6-0.3l0.1,1.6l-3,0.2l0.1,1.9l3-0.2&#xA;			l0.1,1.6L38.7,87.7z M28.5,88.3l-0.3-5.1l4.6-0.3l0.1,1.6l-3,0.2l0.1,1.9l3-0.2l0.1,1.6L28.5,88.3z M33.2,89.5l0.1,1.6l-7.9,0.5&#xA;			l-0.5-8.3l1.6-0.1l0.4,6.6L33.2,89.5z M23,90.2l0.1,1.6l-7.9,0.5L14.7,84l1.6-0.1l0.4,6.6L23,90.2z M48.5,81.9l4.6-0.3l0.1,1.6&#xA;			l-3,0.2l0.1,1.9l3-0.2l0.1,1.6L48.9,87L48.5,81.9z M43.4,88.9l0.1,1.6L35.6,91l-0.5-8.3l1.6-0.1l0.4,6.6L43.4,88.9z M47.3,88.6&#xA;			l6.3-0.4l0.1,1.6l-7.9,0.5L45.3,82l1.6-0.1L47.3,88.6z M46.7,39.2H120v6.9H84.8c0.4-1.3,0.8-3.2-0.8-4.3c-2.1-1.4-4.5,1.4-6.3,4.3&#xA;			h-31C46.7,46.1,46.7,39.2,46.7,39.2z M43.5,48.8h32.6c-0.2,0.3-0.3,0.6-0.4,0.8c-3.4,0.6-22.1,1.5-22.1,1.5l-10,0.7L43.5,48.8&#xA;			L43.5,48.8z M90.4,52.4c1.1-0.3,4.2-1.7,3.7-3.4c0-0.1-0.1-0.1-0.1-0.2h30.8v6.9H97.6C96.3,53.8,92.1,52.9,90.4,52.4z"/>
		<path d="M4,119c-0.3,0-0.5-0.2-0.2-0.4c0.4-0.3,4.4-2.2,4.4-2.1c0.9,1,1.2,2.3,1.2,2.3S4.1,119,4,119z M48.4,116.5&#xA;			c0-0.1,4,1.8,4.4,2.1c0.2,0.2,0,0.4-0.2,0.4l-5.3-0.2C47.3,118.8,47.5,117.6,48.4,116.5z M16,12.1c-0.6,1-1.3,2.2-1.9,3.5&#xA;			c0-0.6-0.1-1.1-0.2-1.5C14.5,13.4,15.2,12.7,16,12.1z M11.8,16.3c0.3,0.7,0.8,1.3,1.2,1.7c-0.3,0.9-0.6,1.8-0.9,2.7&#xA;			c-0.7-1.9-1.2-2.5-1.6-2.6C10.9,17.5,11.4,16.9,11.8,16.3z M9.4,20c0,1.4,1.2,2.4,2.2,3c-0.3,1.1-0.6,2.2-0.9,3.1&#xA;			c-0.4-2.2-1-2.8-1.4-2.8c-0.4-0.1-0.7,0.2-1,0.7c-1,1.9,0.4,3.6,1.6,4.4c-0.4,1.1-0.8,2.1-1.2,2.9c-0.3-2.4-0.9-3.1-1.3-3.2&#xA;			c-0.3-0.1-0.6,0.1-0.9,0.5C6.9,26,7.7,23,9.4,20z M6.6,34.7c-0.1-1-0.1-2-0.2-3c0.3,0.7,0.9,1.3,1.4,1.7c-0.4,0.7-0.8,1.3-1.2,1.8&#xA;			C6.6,35,6.6,34.9,6.6,34.7z M12.9,65.3L28,63.8c-9.7,6.9-15.1,5.3-15.1,5.3L12.7,69C12.7,68.1,12.8,66.7,12.9,65.3z M12.4,118.7&#xA;			c-0.1-0.8-0.5-2.4-1.3-3.2c0,0,1.5-0.8,2.2-1c1.2,1,1.9,3.2,2,4L12.4,118.7z M18.2,118.4c0-1.2-0.7-3.5-2.1-5l2.5-1&#xA;			c2.3,2.2,2.5,5.9,2.5,5.9S19,118.4,18.2,118.4z M27.1,118.2c-0.7,0.1-2.5,0.1-3,0.1c-0.8-4.6-2.8-6.9-2.8-6.9&#xA;			c0-0.1,2.8-0.6,2.8-0.6s2.3,0.6,3,0.6V118.2z M27.1,108.8c-0.2,0.6-3.1-0.4-3.1-1.1c0-0.5-1-10.1-1.1-10.6l4.1-0.3&#xA;			C27.2,100.3,27.2,105.4,27.1,108.8z M43.3,114.5c0.7,0.2,2.2,1,2.2,1c-0.8,0.8-1.1,2.5-1.3,3.2l-2.9-0.2&#xA;			C41.3,117.7,42.1,115.5,43.3,114.5z M38,112.4l2.5,1c-1.4,1.6-2,3.8-2.1,5c-0.8,0-2.9-0.1-2.9-0.1S35.7,114.6,38,112.4z&#xA;			 M35.2,111.4c0,0-2,2.3-2.8,6.9c-0.5,0-2.3,0-3-0.1l0.1-6.9c0.6,0,3-0.6,3-0.6S35.3,111.2,35.2,111.4z M29.5,96.7&#xA;			c1-0.1,3.1-0.2,4.1-0.3c0,0-1.1,10.8-1.1,11.3c0,0.7-2.9,1.7-3.1,1.1C29.4,105.4,29.4,100.2,29.5,96.7z M57,92l-44.3,2.9l0.2-23.2&#xA;			c3.8,0.4,6.7-0.3,11.2-2.4c2.6-1.2,5.7-3.2,8.8-5.9l6.5-0.6c0.5-0.1,1-0.1,1.5-0.2c-3.1,5-6.4,9.5-8.6,12.8&#xA;			c-0.3,0.5-0.6,1-0.7,1.6c0,0.3-0.1,0.7,0.2,0.9c0.2,0.1,0.5,0,0.7-0.1c0.3-0.2,0.5-0.5,0.8-0.7c0.3-0.3,0.6-0.6,0.9-1&#xA;			c0.9-1.1,1.8-2.1,2.7-3.3c2.6-3.8,4.9-7.2,6.8-10.4c1.7-0.2,3.5-0.4,5.2-0.6c-0.8,2-1.8,3.9-2.9,6c-0.4,0.7-0.7,1.5-0.5,2.2&#xA;			c0.2,1,0.8,0.8,1.7-0.1c2-2.5,3.4-5.4,4.3-8.4h0.1c0,0,0.1,0,0.3,0L57,92z M42.8,21.6c1.2-0.4,2.5-0.8,3.7-1.3v7.9&#xA;			c0,0.8,0.6,1.4,1.4,1.4H49v6.9h-3.7c-0.6,0-1.1,0.4-1.3,0.9c-11.5-1.6-16.2-11.2-16.2-11.2c0.2,0,2.9,0.7,8.3,1.3&#xA;			c2.2,0.2,4.4,0.4,6.6,0.3c0.9-0.1,2.2-0.3,2-1.5C44.7,25.6,43.2,22.5,42.8,21.6z M49.3,20.1h73.3V27H49.3V20.1z M125,36.5H51.7&#xA;			v-6.9H125V36.5z M125.5,17.3H52.3v-6.9h73.3v6.9H125.5z M18.3,89L18,83.9l4.6-0.3l0.1,1.6l-3,0.2l0.1,1.9l3-0.2l0.1,1.6L18.3,89z&#xA;			 M24.3,13.7c-0.1-0.3,0.1-0.7,0.4-0.8s0.6,0,0.7,0.3c0.2,0.3,0.5,0.6,0.7,0.8c0.3,0.2,0.6,0.5,0.9,0.6c0.6,0.3,1.4,0.4,2,0.2&#xA;			s1.1-0.6,1.4-1.2c0.3-0.6,0.4-1.4,0.4-2.2c0-0.4,0.3-0.7,0.7-0.7c0.3,0,0.6,0.2,0.7,0.5l0.1,0.1c0.3,0.9,0.4,2,0,3.1&#xA;			c-0.2,0.5-0.5,1.1-1,1.5s-1,0.8-1.6,0.9C29,17,28.4,17,27.8,16.9s-1.1-0.3-1.6-0.6c-0.9-0.6-1.6-1.5-1.9-2.4V13.7z M38.7,87.7&#xA;			l-0.3-5.1l4.6-0.3l0.1,1.6l-3,0.2l0.1,1.9l3-0.2l0.1,1.6L38.7,87.7z M28.5,88.3l-0.3-5.1l4.6-0.3l0.1,1.6l-3,0.2l0.1,1.9l3-0.2&#xA;			l0.1,1.6L28.5,88.3z M33.2,89.5l0.1,1.6l-7.9,0.5l-0.5-8.3l1.6-0.1l0.4,6.6L33.2,89.5z M23,90.2l0.1,1.6l-7.9,0.5L14.7,84l1.6-0.1&#xA;			l0.4,6.6L23,90.2z M48.5,81.9l4.6-0.3l0.1,1.6l-3,0.2l0.1,1.9l3-0.2l0.1,1.6L48.9,87L48.5,81.9z M33.7,11&#xA;			c-0.1-0.3,0.1-0.7,0.4-0.8c0.3-0.1,0.5,0,0.7,0.2c0.2,0.3,0.5,0.6,0.8,0.8s0.6,0.5,0.9,0.6c0.7,0.3,1.4,0.5,2,0.3&#xA;			c0.3-0.1,0.6-0.2,0.8-0.4s0.4-0.4,0.6-0.7c0.3-0.6,0.4-1.4,0.4-2.2c0-0.4,0.3-0.7,0.7-0.7c0.3,0,0.5,0.2,0.6,0.4l0.1,0.2&#xA;			c0.2,0.5,0.3,1,0.3,1.5c0,0.3,0,0.5-0.1,0.8c0,0.1-0.1,0.3-0.1,0.4c0,0.1-0.1,0.3-0.1,0.4c-0.2,0.6-0.6,1.1-1.1,1.5&#xA;			s-1.1,0.7-1.8,0.8c-1.3,0.2-2.5-0.1-3.4-0.7c-0.9-0.6-1.6-1.5-1.9-2.5L33.7,11z M43.4,88.9l0.1,1.6L35.6,91l-0.5-8.3l1.6-0.1&#xA;			l0.4,6.6L43.4,88.9z M47.3,88.6l6.3-0.4l0.1,1.6l-7.9,0.5L45.3,82l1.6-0.1L47.3,88.6z M122.7,39.2h3.7c0.8,0,1.4-0.6,1.4-1.4v-9.6&#xA;			c0-0.8-0.6-1.4-1.4-1.4h-1.1v-6.9h1.6c0.8,0,1.4-0.6,1.4-1.4V9.1c0-0.8-0.6-1.4-1.4-1.4H63.6C64,6.9,64.2,6,64.2,5.2&#xA;			c0-2.5-2.3-3.5-4.2-4c-6.3-1.8-21.3-2-32.9,2c-0.2,0.1-0.5,0.2-0.7,0.2c0.1-0.3,0.1-0.5,0.1-0.8c0-0.6-0.2-0.9-0.6-1&#xA;			c-0.3-0.1-1-0.2-2.9,3.2c-0.3,0.1-0.5,0.2-0.8,0.4c0.4-1.1,0.3-1.6,0-1.9S21.5,3,21,3.3c-1.4,0.7-1.7,2-1.6,3.2&#xA;			C19.2,6.8,19,6.9,18.8,7c-0.1-0.5-0.3-0.7-0.5-0.8c-0.3-0.2-0.7,0-1.1,0.4c-0.6,0.6-0.8,1.3-0.8,2C6.7,15.2,3.7,24.1,3.7,31.2&#xA;			c0,0.7,0,1.4,0.1,2C3.5,33,3.4,33,3.3,33c-0.4,0-0.6,0.3-0.7,0.9c-0.3,1.3,0.2,2.5,1.4,3.5c-0.1,0-0.1,0-0.1,0c-0.5,0-1,0.4-1,1&#xA;			s0.4,1,1,1.1c0,0,0,0,0.1,0c0.2,0,0.4,0,0.8-0.1c1.3,6.4,4.4,11.8,6.5,14.5c-0.4,2.9-0.7,5.9-0.9,8.8c-0.1,1.7-0.3,3.4-0.3,5.1&#xA;			l-0.3,30l10.5-0.6L22,109l-1.6,0.5c0,0-1-0.9-1.7-0.7l0,0c-0.7,0.2-1,1.6-1,1.6l-2.6,1c0,0-1.1-0.8-1.9-0.4&#xA;			c-0.8,0.3-0.9,1.6-0.9,1.6l-2.3,1.1c0,0-1.1-0.8-1.8-0.5S7.5,115,7.5,115c-6.5,2.8-9.6,5.6-5.9,5.6c2.3,0,51,0,53.4,0&#xA;			c3.7,0,0.6-2.8-5.9-5.6c0,0-0.1-1.5-0.7-1.8c-0.6-0.3-1.8,0.5-1.8,0.5l-2.3-1.1c0,0-0.1-1.3-0.9-1.6c-0.8-0.3-1.9,0.4-1.9,0.4&#xA;			l-2.6-1c0,0-0.2-1.4-1-1.6c-0.7-0.2-1.8,0.7-1.8,0.7l-1.6-0.5l2.1-12.8l23.7-1.5l-6.1-33.6c6.5-0.5,22.3-2,22.6-1.9&#xA;			c2.6,3.5,9.4,9.3,11.4,7.7c1.5-1.2-0.2-3.6-0.9-4.5c1.5,1.1,5.1,2.3,6.1,0.8c1-1.6-1.8-4-3-4.9c1.2,0.3,4.4,0.7,6.2,0.1h29.5&#xA;			c0.8,0,1.4-0.6,1.4-1.4v-9.6c0-0.8-0.6-1.4-1.4-1.4h-3.4V39.2z M46.7,39.2H120v6.9H84.8c0.4-1.3,0.8-3.2-0.8-4.3&#xA;			c-2.1-1.4-4.5,1.4-6.3,4.3h-31C46.7,46.1,46.7,39.2,46.7,39.2z M40.8,52.1l-13.4,1c-0.5,0-1.2,0.7-1.2,1.2s0.6,1.2,1.2,1.2&#xA;			l26.3-1.9c0,0,20.7-1.2,23.4-1.7c2.3-5,4.6-8.8,5.6-8.2c1.9,1.2-1.7,4.5-0.7,5.5c0.8,0.8,9-1.2,9.5,0.2c0.6,2-7.4,2.1-7.4,2.8&#xA;			c0,1.1,11.6,2.2,11.2,4.3c-0.3,1.8-10.6-1.8-11.1-0.7c-0.4,0.8,7.7,4.6,6.9,6c-1,1.6-8-3.9-8.6-3.2c-0.5,0.5,5,5.2,3.9,6.1&#xA;			c-1,0.9-6.4-4.5-8.9-8c-0.9,0-26.6,2.3-26.6,2.3c-4,0.4-8,1-12,1.5L13,63v-0.1c0.2-3.2,0.6-6.5,1.1-9.7c-3.9-4.9-5.7-9.7-6.5-12.4&#xA;			c-0.2-0.7-0.4-1.5-0.5-2.2c0.1,0,0.2,0,0.2,0c0.3,0,0.5,0,0.8,0c1.6-0.2,2.7-0.9,3.2-2.1c0.2-0.5,0.2-0.9-0.1-1.2&#xA;			c-0.2-0.1-0.6-0.5-2.9,0.8c0.4-0.6,0.9-1.3,1.3-2.1c0.3,0,1.1-0.2,2-0.6c1.4-0.7,2.3-1.7,2.4-2.9c0.1-0.6-0.1-0.9-0.4-1.1&#xA;			c-0.2-0.1-0.8-0.3-2.7,1.8c0.3-0.7,0.6-1.5,0.9-2.3c0.4-0.1,1.1-0.3,1.7-0.7c1.4-0.7,2.2-1.8,2.2-3.1c0-0.6-0.1-0.9-0.5-1&#xA;			c-0.2-0.1-0.8-0.3-2.6,2c0.3-1,0.6-2,0.8-3.1c0-0.1,0.1-0.2,0.1-0.4c0.4-0.1,1-0.2,1.7-0.5c1.5-0.6,2.3-1.6,2.4-2.9&#xA;			c0.1-0.6-0.1-0.9-0.4-1.1c-0.2-0.1-0.8-0.3-3,2.1c0.3-1.1,0.7-2.1,1.1-3c0.3,0,1.1,0,2-0.3c1.5-0.5,2.5-1.4,2.8-2.6&#xA;			c0.1-0.6,0-0.9-0.3-1.1c-0.2-0.1-0.8-0.5-3.6,2.1c0.7-1.4,1.5-2.6,2.2-3.6c0.2,0,0.4,0,0.8,0c0.3,0,0.8,0,1.2-0.1&#xA;			c1.6-0.3,2.6-1,3.1-2.2c0.2-0.5,0.2-0.9-0.1-1.1c-0.2-0.1-0.6-0.4-2.6,0.8c0.7-0.7,1.3-1.2,1.7-1.5C29.2,4.5,38,2.4,49.8,2.4&#xA;			C59,2.4,61.9,4,61.9,5.3c0,0.7-0.4,1.6-1,2.5h-10c-0.8,0-1.4,0.6-1.4,1.4v7c-2.6,1.3-5.2,2.4-7.5,3c-1.7,0.5-3,0.8-2.1,2.6&#xA;			l1.5,3.5C37.9,25.7,31,24.7,27.6,24c0.6-0.7,1.2-1.4,1.9-2.1l0,0c0.2-0.2,0.3-0.5,0.2-0.8c-0.1-0.4-0.5-0.6-0.9-0.5&#xA;			c-0.6,0.2-1.1,0.4-1.6,0.7c-0.3,0.1-0.5,0.3-0.7,0.5s-0.5,0.4-0.7,0.6c-0.9,0.8-1.6,1.9-2,3c-0.5,1.1-0.8,2.2-0.9,3.4&#xA;			c-0.1,0.6-0.1,1.2-0.1,1.7c0,0.6,0.1,1.1,0.2,1.7c0.1,0.3,0.3,0.5,0.6,0.5c0.4,0.1,0.8-0.2,0.9-0.6V32c0.1-0.5,0.2-1,0.3-1.5&#xA;			c0.1-0.5,0.2-1,0.4-1.5c0.1-0.5,0.3-1.1,0.5-1.6C32,37.9,40,39.5,44,39.9v6.2h-1.8c-0.8,0-1.4,0.6-1.4,1.4V52.1z M43.5,48.8h32.6&#xA;			c-0.2,0.3-0.3,0.6-0.4,0.8c-3.4,0.6-22.1,1.5-22.1,1.5l-10,0.7L43.5,48.8L43.5,48.8z M90.4,52.4c1.1-0.3,4.2-1.7,3.7-3.4&#xA;			c0-0.1-0.1-0.1-0.1-0.2h30.8v6.9H97.6C96.3,53.8,92.1,52.9,90.4,52.4z"/>
	</g>
</g>
</svg>